<?xml version="1.0" encoding="UTF-8"?>
<svg version="1.1" xmlns="http://www.w3.org/2000/svg" width="2390" height="1441">
<path d="M0 0 C-0.70821114 11.42855955 -1.86236093 22.78956297 -3.07418823 34.17337036 C-3.28760488 36.1948782 -3.50081296 38.21640806 -3.71383202 40.23795784 C-4.29653549 45.76207046 -4.88217912 51.28586794 -5.46832395 56.80961633 C-6.10131237 62.77978638 -6.73154555 68.75024736 -7.36212158 74.72067261 C-8.45459898 85.06087589 -9.54879672 95.40089619 -10.64422226 105.74078751 C-11.79440431 116.59759423 -12.9436092 127.45450366 -14.09152603 138.31155014 C-14.16311195 138.98860691 -14.23469787 139.66566368 -14.30845306 140.36323732 C-14.67210737 143.80271075 -15.03574486 147.24218596 -15.39937617 150.68166183 C-17.97348294 175.0290255 -20.54981661 199.37615307 -23.12744141 223.72314453 C-25.6234416 247.29918866 -28.11834701 270.87534823 -30.61181641 294.45166016 C-30.6885266 295.17696853 -30.76523679 295.90227689 -30.84427153 296.64956431 C-31.53833788 303.21209167 -32.23239266 309.77462026 -32.92643505 316.33715016 C-37.66452673 361.13815065 -42.4036979 405.93903714 -47.14609528 450.73958206 C-47.64158063 455.42036641 -48.13698831 460.10115897 -48.6323204 464.78195953 C-49.20410974 470.18524267 -49.77612003 475.58850238 -50.34823611 480.99175093 C-50.66537455 483.98773759 -50.98222288 486.98375483 -51.29904723 489.97977471 C-52.1773512 498.27982663 -53.05940951 506.57937862 -53.96341324 514.87667465 C-54.1050742 516.18097675 -54.24673516 517.48527885 -54.39268887 518.82910526 C-54.64285016 521.12586697 -54.89486091 523.42242862 -55.14940155 525.71870911 C-57.5627542 539.84487154 -57.5627542 539.84487154 -53.8125 552.8125 C-49.41385806 556.23366595 -46.73780601 557.20907461 -41.1875 556.9375 C-28.71386716 555.31130787 -20.92900718 544.30451323 -13.54296875 535.11328125 C-10.65479572 531.54377192 -7.64178301 528.08586901 -4.625 524.625 C-0.52963096 519.92286565 3.54318738 515.20486354 7.5625 510.4375 C11.35414489 505.94017638 15.16728302 501.46238201 19 497 C22.85138938 492.5150648 26.686331 488.01705464 30.5 483.5 C34.815252 478.38885138 39.16166658 473.30530858 43.51953125 468.23046875 C46.86292298 464.33416469 50.18792482 460.42294783 53.5 456.5 C57.815252 451.38885138 62.16166658 446.30530858 66.51953125 441.23046875 C69.86292298 437.33416469 73.18792482 433.42294783 76.5 429.5 C80.815252 424.38885138 85.16166658 419.30530858 89.51953125 414.23046875 C92.86292298 410.33416469 96.18792482 406.42294783 99.5 402.5 C103.815252 397.38885138 108.16166658 392.30530858 112.51953125 387.23046875 C115.86292298 383.33416469 119.18792482 379.42294783 122.5 375.5 C126.815252 370.38885138 131.16166658 365.30530858 135.51953125 360.23046875 C138.86292298 356.33416469 142.18792482 352.42294783 145.5 348.5 C149.815252 343.38885138 154.16166658 338.30530858 158.51953125 333.23046875 C161.86292298 329.33416469 165.18792482 325.42294783 168.5 321.5 C172.815252 316.38885138 177.16166658 311.30530858 181.51953125 306.23046875 C184.86292298 302.33416469 188.18792482 298.42294783 191.5 294.5 C195.815252 289.38885138 200.16166658 284.30530858 204.51953125 279.23046875 C207.86292298 275.33416469 211.18792482 271.42294783 214.5 267.5 C218.815252 262.38885138 223.16166658 257.30530858 227.51953125 252.23046875 C230.86292298 248.33416469 234.18792482 244.42294783 237.5 240.5 C241.815252 235.38885138 246.16166658 230.30530858 250.51953125 225.23046875 C253.86292298 221.33416469 257.18792482 217.42294783 260.5 213.5 C264.815252 208.38885138 269.16166658 203.30530858 273.51953125 198.23046875 C276.86292298 194.33416469 280.18792482 190.42294783 283.5 186.5 C287.81422083 181.39007273 292.15789728 176.30625948 296.51733398 171.23486328 C298.96498489 168.38474496 301.40298984 165.52763059 303.81640625 162.6484375 C315.6333078 148.55100785 327.96364636 134.93700335 342 123 C343.43666016 121.72962891 343.43666016 121.72962891 344.90234375 120.43359375 C354.82895785 111.6962062 365.32051367 103.78962343 376 96 C376.79647949 95.41460449 377.59295898 94.82920898 378.41357422 94.22607422 C400.88869101 77.77713004 425.12644044 64.42257096 450 52 C450.84933105 51.57138672 451.69866211 51.14277344 452.57373047 50.70117188 C504.65412798 24.53704914 563.20449921 9.45075735 621 3 C622.29244629 2.85046875 623.58489258 2.7009375 624.91650391 2.546875 C655.18508948 -0.87720843 685.58927628 -0.31435527 716 0 C715.43373261 6.13357647 714.4438449 11.84367913 712.83642578 17.78222656 C712.61568579 18.61847785 712.39494579 19.45472914 712.16751671 20.31632137 C711.43294619 23.09276597 710.68916679 25.86665456 709.9453125 28.640625 C709.41550963 30.63521559 708.88626788 32.62995529 708.35754395 34.62483215 C706.92194804 40.03460186 705.4782394 45.44217674 704.03302765 50.84938431 C702.49834869 56.59684516 700.97113039 62.34628852 699.44287109 68.09545898 C695.94510434 81.24719275 692.43566296 94.39579608 688.92327881 107.54363251 C688.02950165 110.88955822 687.13602297 114.23556347 686.24267578 117.581604 C681.25773104 136.25275779 676.26890858 154.92287189 671.27197266 173.59082031 C663.29190235 203.40491843 655.3452091 233.22777788 647.41573334 263.05537033 C637.52790628 300.24949778 627.61395205 337.4364874 617.66662598 374.61474609 C608.58214055 408.56882517 599.53089159 442.53162842 590.5 476.5 C580.9168117 512.54575446 571.30687019 548.58420979 561.66662598 584.61474609 C552.5821405 618.56882535 543.5309873 652.53165377 534.5 686.5 C527.35006573 713.39275265 520.19700392 740.28463577 513.01171875 767.16796875 C512.72717205 768.23264248 512.44262535 769.29731621 512.14945602 770.39425278 C509.33091076 780.93941673 506.51049257 791.4840759 503.68518257 802.02742958 C502.30910869 807.16267191 500.93367218 812.29808478 499.55859375 817.43359375 C499.28850117 818.44223606 499.01840858 819.45087837 498.74013138 820.4900856 C494.81318849 835.16057811 490.92653932 849.84133729 487.06336403 864.52874184 C485.4179196 870.77991356 483.76659041 877.029534 482.11530972 883.27916622 C480.56776698 889.13947762 479.03037952 895.00232423 477.50102901 900.8674078 C476.5584848 904.47208569 475.60614963 908.07412582 474.65125847 911.67555046 C474.2177639 913.31855091 473.78823607 914.96260488 473.36334419 916.60785103 C465.22696566 948.0845627 449.47443194 974.4563605 421.625 992.25 C405.46956624 1001.72578326 388.93250228 1008.19692768 369.90711975 1008.12025452 C369.12118028 1008.12110894 368.3352408 1008.12196337 367.52548498 1008.12284368 C364.90767274 1008.12448296 362.28992542 1008.11900266 359.67211914 1008.11352539 C357.78933717 1008.11324316 355.9065551 1008.11340196 354.02377319 1008.1139679 C348.92310104 1008.11425446 343.82245247 1008.10838046 338.72178578 1008.10139394 C333.38731459 1008.09513699 328.05284283 1008.09455475 322.71836853 1008.09336853 C312.62150417 1008.09026212 302.52465065 1008.08205803 292.42779106 1008.07201904 C280.93087191 1008.06083647 269.43395224 1008.05534205 257.937029 1008.05032361 C234.29134666 1008.03987485 210.64567394 1008.02228877 187 1008 C187.61937707 1002.70877995 188.45033872 997.96714844 190.05932617 992.85888672 C190.26845737 992.18833252 190.47758856 991.51777832 190.69305706 990.8269043 C191.38654309 988.60907213 192.08971297 986.39443923 192.79296875 984.1796875 C193.29211048 982.59028524 193.79064068 981.00069081 194.28860474 979.41091919 C195.63324558 975.12398148 196.98626548 970.83973041 198.34079361 966.5559082 C199.76699384 962.04016113 201.18522816 957.52191369 202.60424805 953.00390625 C204.93482918 945.58690926 207.26979832 938.1713083 209.60839844 930.75683594 C212.69599631 920.96754651 215.77567141 911.17578584 218.8515625 901.3828125 C219.77031983 898.45799989 220.68911432 895.53319895 221.60791016 892.60839844 C221.83168776 891.89601013 222.05546535 891.18362183 222.28602409 890.449646 C223.87111142 885.40392598 225.45748022 880.35860996 227.04443359 875.31347656 C232.9860685 856.42322043 238.90850452 837.5270533 244.8125 818.625 C245.01338604 817.98188118 245.21427208 817.33876236 245.42124557 816.67615509 C248.15746927 807.91625925 250.89265429 799.15603921 253.62762451 790.39575195 C257.94232342 776.57555281 262.25792749 762.75563656 266.57494354 748.93616104 C267.10833768 747.2286462 267.64170865 745.52112413 268.17505646 743.81359482 C274.00357965 725.15341143 279.83785596 706.49509918 285.70703125 687.84765625 C285.93583355 687.1206741 286.16463585 686.39369194 286.40037155 685.64468002 C287.54298221 682.0143791 288.6857613 678.38413121 289.82861328 674.75390625 C290.05290009 674.04146759 290.27718689 673.32902893 290.50827026 672.59500122 C290.96139916 671.15568533 291.41454453 669.71637463 291.8677063 668.27706909 C299.16606583 645.09502712 306.38150784 621.8882601 313.55702591 598.6679306 C320.99361156 574.60533281 328.52672552 550.57451702 336.125 526.5625 C336.50176565 525.371833 336.50176565 525.371833 336.88614273 524.15711212 C337.39192775 522.55873868 337.89771686 520.96036654 338.40351009 519.3619957 C339.65590753 515.40414847 340.90812642 511.44624479 342.16015625 507.48828125 C342.40587183 506.71154556 342.65158741 505.93480988 342.90474892 505.13453674 C348.16039573 488.51771971 353.36966973 471.88654099 358.5625 455.25 C358.76679375 454.59553516 358.97108749 453.94107033 359.18157196 453.26677322 C361.35986745 446.28819496 363.53690704 439.30922536 365.71337891 432.33007812 C369.05334551 421.62122218 372.40046703 410.91460231 375.74728394 400.20788574 C377.305761 395.22201134 378.86381231 390.23600391 380.421875 385.25 C380.9280577 383.63020765 381.43424234 382.0104159 381.94042969 380.390625 C382.46491699 378.71226562 382.46491699 378.71226562 383 377 C382.67 376.67 382.34 376.34 382 376 C381.01773437 377.27230469 381.01773437 377.27230469 380.015625 378.5703125 C374.62424153 385.51394264 369.10109387 392.30270627 363.34936523 398.95092773 C358.79531186 404.21722292 354.3845559 409.59184374 350 415 C342.96990634 423.61452764 335.90154062 432.19734976 328.83056641 440.77832031 C325.88632412 444.3516205 322.9432036 447.92584428 320 451.5 C318.83333904 452.91667137 317.66667237 454.33333803 316.5 455.75 C315.9225 456.45125 315.345 457.1525 314.75 457.875 C281.5 498.25 281.5 498.25 279.7487793 500.37646484 C278.5861588 501.78822989 277.42356102 503.20001364 276.26098633 504.61181641 C273.28260241 508.22863422 270.30378282 511.84509182 267.32421875 515.4609375 C259.90002692 524.47054563 259.90002692 524.47054563 252.5 533.5 C246.96297024 540.27544122 241.39510975 547.02547676 235.83056641 553.77832031 C232.88632412 557.3516205 229.9432036 560.92584428 227 564.5 C225.83333904 565.91667137 224.66667237 567.33333803 223.5 568.75 C222.9225 569.45125 222.345 570.1525 221.75 570.875 C160.50000004 645.24999995 160.50000004 645.24999995 158.7487793 647.37646484 C157.5861588 648.78822989 156.42356102 650.20001364 155.26098633 651.61181641 C152.28260241 655.22863422 149.30378282 658.84509182 146.32421875 662.4609375 C138.90002692 671.47054563 138.90002692 671.47054563 131.5 680.5 C125.96297024 687.27544122 120.39510975 694.02547676 114.83056641 700.77832031 C111.88632412 704.3516205 108.9432036 707.92584428 106 711.5 C104.83333904 712.91667137 103.66667237 714.33333803 102.5 715.75 C101.9225 716.45125 101.345 717.1525 100.75 717.875 C53.5 775.24999999 53.5 775.24999999 51.7487793 777.37646484 C50.5861588 778.78822989 49.42356102 780.20001364 48.26098633 781.61181641 C45.28260241 785.22863422 42.30378282 788.84509182 39.32421875 792.4609375 C38.72061523 793.1936084 38.11701172 793.9262793 37.49511719 794.68115234 C36.29947589 796.13226427 35.10351741 797.58311492 33.90722656 799.03369141 C31.4172797 802.05477991 28.93057981 805.07777306 26.47265625 808.125 C21.93002039 813.74541413 17.21285379 819.14588831 12.3203125 824.46484375 C10.42718797 826.53325758 8.57748296 828.62405876 6.75 830.75 C-2.70268247 841.56855173 -12.7320965 851.83258988 -22.875 862 C-23.36677734 862.49436554 -23.85855469 862.98873108 -24.36523438 863.49807739 C-29.49393505 868.64806919 -34.66360208 873.69957885 -40.18554688 878.43066406 C-43.14434317 880.98975214 -45.96728867 883.69121037 -48.8125 886.375 C-53.80890983 891.05007368 -58.91214612 895.5047169 -64.2578125 899.78125 C-66.67245568 901.73497839 -69.02885392 903.74195902 -71.37548828 905.77636719 C-80.53515832 913.68477877 -90.26134357 920.82702522 -100 928 C-100.77569336 928.57572754 -101.55138672 929.15145508 -102.35058594 929.74462891 C-113.56531486 938.06266245 -125.07851285 945.73266961 -137 953 C-137.69915527 953.42877441 -138.39831055 953.85754883 -139.11865234 954.29931641 C-151.41964081 961.81121382 -164.13893652 968.50277791 -177 975 C-177.82258301 975.41668945 -178.64516602 975.83337891 -179.49267578 976.26269531 C-207.59583713 990.37545849 -252.7049685 1011.83148883 -284.84765625 1004.3359375 C-291.60217668 1001.99274037 -297.66116409 997.95229373 -301.34765625 991.72265625 C-306.18311799 981.30648239 -305.25387077 970.9383389 -304.08416176 959.767313 C-303.93563948 958.29010813 -303.93563948 958.29010813 -303.78411674 956.78306073 C-303.45204288 953.49253584 -303.11280848 950.20278983 -302.77359009 946.91299438 C-302.53122238 944.52627709 -302.28929743 942.1395148 -302.04777658 939.75271165 C-301.52210796 934.56795544 -300.993322 929.38352699 -300.4617672 924.19937134 C-299.67127849 916.4897104 -298.88659212 908.77946655 -298.1030777 901.0690941 C-296.78424877 888.09244269 -295.46074368 875.11627221 -294.13457108 862.14036942 C-292.82042356 849.28196174 -291.50838559 836.42334166 -290.19913864 823.56443405 C-290.11763443 822.76394281 -290.03613022 821.96345157 -289.95215619 821.13870302 C-289.5381849 817.07278523 -289.1242515 813.00686358 -288.71033292 808.94094042 C-285.77835013 780.14071848 -282.84172681 751.34097143 -279.90234375 722.54150391 C-277.05210138 694.61530175 -274.20385281 666.68889747 -271.35839844 638.76220703 C-271.22702368 637.47284318 -271.22702368 637.47284318 -271.09299489 636.15743157 C-270.12586228 626.66558196 -269.15878994 617.17372621 -268.19175267 607.68186688 C-266.48179551 590.89795048 -264.77164282 574.114054 -263.06137085 557.33016968 C-262.93717771 556.11137995 -262.93717771 556.11137995 -262.81047562 554.86796821 C-260.36085482 530.82830281 -257.90989398 506.78877436 -255.45768817 482.74937252 C-255.14650275 479.69873632 -254.8353317 476.64809867 -254.52416091 473.59746098 C-253.21567343 460.76941992 -251.90716202 447.94138132 -250.59804177 435.11340482 C-250.01247795 429.37542815 -249.4271063 423.63743187 -248.84179799 417.89942913 C-248.60630545 415.59117006 -248.37074327 413.28291809 -248.13510104 410.9746743 C-246.74094803 397.31800447 -245.35991262 383.66012394 -244 370 C-245.08837176 370.99764315 -246.17662001 371.99542105 -247.26481628 372.99325562 C-247.87084781 373.54887869 -248.47687933 374.10450176 -249.10127544 374.6769619 C-267.98426102 392.03509042 -283.28037979 411.72926712 -296 434 C-296.4856543 434.84256348 -296.97130859 435.68512695 -297.47167969 436.55322266 C-307.64591352 454.31075666 -315.83596731 472.57766235 -322.66796875 491.86328125 C-323.09725174 493.07052353 -323.52653473 494.27776581 -323.96882629 495.52159119 C-328.39935829 508.0170488 -332.64305263 520.57567058 -336.86853027 533.14172363 C-339.16412683 539.96805349 -341.46986348 546.79096065 -343.77734375 553.61328125 C-344.00610828 554.28976589 -344.23487282 554.96625053 -344.47056961 555.66323471 C-348.32344298 567.05162358 -352.25800951 578.40964921 -356.25 589.75 C-363.17858305 609.43979711 -369.83655082 629.21936247 -376.5 649 C-384.79340868 673.61829179 -393.15820524 698.20586562 -401.79722595 722.70555115 C-403.37118622 727.1786702 -404.9063678 731.66281522 -406.41015625 736.16015625 C-418.53300942 772.33444791 -434.4581312 807.24777201 -451.26074219 841.45849609 C-452.40228948 843.78293251 -453.54105509 846.10873753 -454.67675781 848.43603516 C-475.93229197 891.95115277 -501.02363904 934.67010197 -533.8125 970.58984375 C-535.93266617 972.92581254 -537.9969731 975.30326875 -540.0625 977.6875 C-543.76288738 981.84589211 -547.73182892 985.43823354 -552 989 C-552.88429688 989.77214844 -553.76859375 990.54429687 -554.6796875 991.33984375 C-557.18611204 993.49723039 -559.72938261 995.58903235 -562.31598413 997.6490103 C-563.86234723 998.88956905 -565.38541634 1000.1590185 -566.90596485 1001.43108654 C-577.53968178 1009.37502083 -587.23992606 1009.25516694 -600.16088867 1009.08520508 C-602.37168884 1009.0892217 -604.58248481 1009.09714797 -606.79325867 1009.10865784 C-612.7605036 1009.12822164 -618.72620516 1009.09200827 -624.69324279 1009.04427171 C-630.95540612 1009.00267703 -637.21753711 1009.0093415 -643.47981262 1009.00968933 C-653.9899518 1009.00320155 -664.49959773 1008.96256713 -675.00952148 1008.89868164 C-685.80029892 1008.83312877 -696.59061217 1008.79774324 -707.3815918 1008.79614258 C-708.04675523 1008.79603968 -708.71191867 1008.79593678 -709.39723857 1008.79583076 C-710.06130697 1008.7957325 -710.72537537 1008.79563424 -711.40956706 1008.795533 C-724.35775333 1008.7934477 -737.30573454 1008.76051116 -750.25384355 1008.71751952 C-753.97276795 1008.70705292 -757.69166797 1008.70197914 -761.41060448 1008.69800758 C-767.26233797 1008.69007036 -773.1136295 1008.66143435 -778.96519661 1008.61707115 C-781.10687045 1008.60384378 -783.24859762 1008.59725393 -785.39031219 1008.59794617 C-811.20394728 1008.59549594 -811.20394728 1008.59549594 -821.34375 998.93359375 C-828.34756433 990.75697089 -828.74611785 981.36037925 -828 971 C-824.28705118 951.40636645 -811.27012134 940.52671665 -796.1796875 929.1640625 C-790.99483376 925.25626633 -785.96928537 921.17790707 -781 917 C-780.21858643 916.34596191 -780.21858643 916.34596191 -779.42138672 915.67871094 C-766.38196985 904.74095467 -754.05716936 893.13315173 -742 881.125 C-740.81627808 879.94828735 -740.81627808 879.94828735 -739.60864258 878.74780273 C-735.41316418 874.54072599 -731.38158807 870.25005389 -727.50585938 865.74658203 C-725.63554484 863.57728401 -723.69327823 861.47894296 -721.75 859.375 C-717.20197235 854.33446174 -713.03307905 849.05121534 -708.87890625 843.6875 C-706.98223768 841.24218693 -705.05452725 838.82848895 -703.08984375 836.4375 C-695.67696816 827.39612172 -689.00028059 817.97510645 -682.5078125 808.25439453 C-681.12910315 806.19302761 -679.73905786 804.13999496 -678.34375 802.08984375 C-669.53404038 789.09569425 -661.46888867 775.65743937 -653.625 762.0625 C-653.13725098 761.22315918 -652.64950195 760.38381836 -652.14697266 759.51904297 C-646.40156219 749.47198108 -642.13424655 739.01890862 -638.26171875 728.12890625 C-637.59108274 726.26166518 -636.92044563 724.39442451 -636.24976158 722.5272007 C-635.54382254 720.55908697 -634.84015055 718.59017678 -634.13717651 716.6210022 C-632.66399195 712.49456773 -631.18431319 708.3704812 -629.70336914 704.24682617 C-629.202794 702.85280226 -628.70222942 701.45877455 -628.20167542 700.06474304 C-627.95428682 699.37578131 -627.70689823 698.68681957 -627.45201302 697.97698021 C-626.70341164 695.89142357 -625.95542332 693.80564805 -625.20762634 691.71980286 C-621.15071889 680.40524818 -617.05448674 669.10532158 -612.9375 657.8125 C-611.65969875 654.30485401 -610.38244545 650.79700876 -609.10546875 647.2890625 C-608.78215073 646.40092865 -608.4588327 645.5127948 -608.12571716 644.5977478 C-603.65102147 632.30017895 -599.20246966 619.99312856 -594.75 607.6875 C-588.28072546 589.80800398 -581.79734663 571.93375842 -575.29284668 554.06704712 C-567.82620621 533.55749181 -560.39762188 513.03452602 -553 492.5 C-543.78058088 466.90926353 -534.51548156 441.33556084 -525.19398499 415.78178406 C-523.03146083 409.84842588 -520.88773982 403.90885537 -518.765625 397.9609375 C-505.85745382 361.86802031 -489.88642676 326.60566539 -470.47753906 293.52880859 C-469.04571302 291.07823785 -467.63981107 288.61473797 -466.2421875 286.14453125 C-455.22307573 266.73095442 -443.03544288 248.11465803 -430 230 C-429.41718262 229.18901855 -428.83436523 228.37803711 -428.23388672 227.54248047 C-420.1870355 216.38616424 -411.81174415 205.56173351 -403 195 C-402.50870605 194.40960938 -402.01741211 193.81921875 -401.51123047 193.2109375 C-396.22552799 186.87164793 -390.84942043 180.62342998 -385.2878418 174.52319336 C-383.88669008 172.97790438 -382.49393633 171.42488293 -381.1159668 169.85888672 C-374.8055098 162.71165394 -368.1212995 155.96861693 -361.37036133 149.23999023 C-359.43389451 147.30890453 -357.50286044 145.37250118 -355.57226562 143.43554688 C-349.55051097 137.41025875 -343.51754383 131.49342512 -337 126 C-335.84260811 124.97932717 -334.68765362 123.95588379 -333.53515625 122.9296875 C-324.35319013 114.82718021 -314.81449719 107.31837833 -305 100 C-304.04891357 99.28481201 -304.04891357 99.28481201 -303.07861328 98.55517578 C-230.8297105 44.24969952 -145.11608076 11.30636623 -33 0.75 C-32.31496399 0.70870972 -31.62992798 0.66741943 -30.9241333 0.62487793 C-20.6061706 0.02173633 -10.33149885 -0.08630893 0 0 Z " fill="#FEFDFD" transform="translate(858,183)"/>
<path d="M0 0 C1.58810417 0.00056555 3.17620887 0.00024475 4.76431274 -0.00088501 C9.03411487 -0.00145391 13.30380239 0.01022457 17.57357812 0.02426291 C22.05117716 0.03684827 26.52877943 0.03794687 31.00639343 0.04031372 C39.46686015 0.04650571 47.92727458 0.06288535 56.38771838 0.0830127 C66.02749051 0.10544309 75.66726526 0.11638301 85.30705702 0.12640357 C105.11969144 0.14725384 124.93227894 0.18238501 144.74487305 0.22705078 C144.17021806 4.36889117 143.54583016 8.37973849 142.4675293 12.42089844 C142.20689697 13.40541489 141.94626465 14.38993134 141.67773438 15.40428162 C141.39051514 16.47243607 141.1032959 17.54059052 140.80737305 18.64111328 C140.34657349 20.37368126 140.34657349 20.37368126 139.87646484 22.14125061 C139.01900963 25.3611835 138.15782392 28.58007498 137.29492188 31.79854965 C136.54767107 34.58826629 135.80343975 37.378785 135.05917358 40.16929913 C132.29715807 50.52440911 129.52195638 60.87597337 126.74487305 71.22705078 C126.51328491 72.09039284 126.28169678 72.95373489 126.04309082 73.84323883 C119.58609114 97.91413304 113.11433034 121.98105091 106.6373291 146.04656982 C102.91049307 159.89388149 99.18598263 173.74181636 95.46362305 187.59033203 C95.2067421 188.54601767 94.94986115 189.5017033 94.68519592 190.48634911 C93.38986626 195.30547497 92.09458124 200.12461282 90.79931641 204.9437561 C88.4586738 213.65223083 86.11763359 222.36059867 83.77662659 231.06897545 C82.47435943 235.9133296 81.1721175 240.75769053 79.86987305 245.60205078 C79.34903983 247.53955081 78.8282065 249.47705081 78.30737305 251.41455078 C78.04956055 252.37361328 77.79174805 253.33267578 77.52612305 254.32080078 C76.74487305 257.22705078 75.96362305 260.13330078 75.18237305 263.03955078 C74.92455551 263.99863248 74.66673798 264.95771418 74.40110779 265.94585896 C73.88032626 267.8831653 73.35954379 269.82047138 72.83876038 271.75777721 C71.53587667 276.60448813 70.2330094 281.45120347 68.93017578 286.29792786 C66.59600039 294.98132566 64.2617168 303.66469428 61.92680359 312.34789371 C60.63691076 317.1448301 59.34711633 321.94179294 58.05737305 326.73876953 C57.80150421 327.69042181 57.54563538 328.64207409 57.28201294 329.62256432 C53.73312915 342.82267173 50.18882665 356.02400228 46.64782715 369.22622681 C44.66713244 376.61094409 42.68518104 383.99532395 40.70296478 391.37963295 C39.35984705 396.38350478 38.01741434 401.38755799 36.67675781 406.39208984 C30.51789288 429.3811769 24.26394187 452.33721301 17.74487305 475.22705078 C18.23305511 474.87166733 18.72123718 474.51628387 19.22421265 474.15013123 C37.57852882 460.79410749 56.03293482 447.63092383 75.35717773 435.70556641 C77.84066328 434.16773527 80.31290783 432.61293588 82.78393555 431.05517578 C121.25385034 406.88445573 162.2240135 385.37182368 204.74487305 369.22705078 C205.69496246 368.86610321 205.69496246 368.86610321 206.66424561 368.49786377 C247.0144911 353.2209245 288.7011087 342.26263509 331.74487305 338.22705078 C332.6982959 338.13278809 333.65171875 338.03852539 334.6340332 337.94140625 C344.70278707 337.04444475 354.76860469 336.98369406 364.86987305 336.97705078 C365.79661835 336.97637604 366.72336365 336.97570129 367.67819214 336.9750061 C405.77420128 337.01887048 442.96023814 343.3255034 477.74487305 359.22705078 C478.45659668 359.54931641 479.16832031 359.87158203 479.90161133 360.20361328 C511.86490329 374.84942436 534.72880405 400.49717179 547.0222168 433.29736328 C549.48681447 440.1747517 551.3244539 447.06514793 552.74487305 454.22705078 C552.96916992 455.31759766 553.1934668 456.40814453 553.42456055 457.53173828 C563.31178707 516.17789015 537.7219823 575.1338408 504.74487305 622.22705078 C504.28532227 622.88350586 503.82577148 623.53996094 503.35229492 624.21630859 C495.58587523 635.26089138 487.39703156 645.86477337 478.74487305 656.22705078 C478.26276367 656.80825684 477.7806543 657.38946289 477.28393555 657.98828125 C471.51998039 664.9324938 465.58906916 671.69229329 459.44799805 678.30517578 C457.7554268 680.13471811 456.07605703 681.97666336 454.41674805 683.83642578 C447.87055618 691.14282057 440.98349638 698.09689504 434.05737305 705.03955078 C433.55991577 705.53959625 433.0624585 706.03964172 432.54992676 706.55484009 C427.36249431 711.7635325 422.13889403 716.88035006 416.55273438 721.66430664 C413.59557939 724.22051853 410.77514017 726.92022599 407.93237305 729.60205078 C402.8857636 734.32901454 397.71153157 738.80214221 392.3112793 743.12548828 C389.76927942 745.20706505 387.34957969 747.37743458 384.93237305 749.60205078 C380.58164231 753.56285753 376.04679408 757.19664361 371.39868164 760.7956543 C367.42297503 763.88251785 363.52887648 767.04988692 359.66674805 770.27758789 C350.71469724 777.75524421 341.45320705 784.70871368 332.01879883 791.56298828 C328.52337584 794.12094438 325.07372367 796.73841863 321.61987305 799.35205078 C314.17702016 804.96030004 306.58876286 810.34496573 298.94897461 815.68066406 C296.77662749 817.20477202 294.61515579 818.74318519 292.45581055 820.28564453 C216.17526981 874.54911114 134.02087018 920.79390567 50.69012451 963.23620605 C48.8949553 964.150604 47.10040341 965.06621362 45.3059082 965.98193359 C30.43802572 973.55364762 15.37706125 980.65512121 0.21704102 987.62109375 C-3.04208686 989.12851487 -6.28917705 990.65856749 -9.5324707 992.19970703 C-32.80652736 1003.22066795 -56.53609518 1013.209958 -80.25512695 1023.22705078 C-81.49380524 1023.7503598 -81.49380524 1023.7503598 -82.75750732 1024.28424072 C-177.42079432 1064.23107847 -275.20376334 1096.3505237 -497.01242065 1151.79971313 C-499.31079818 1152.28656375 -501.60845146 1152.77684819 -503.90530396 1153.27084351 C-507.08709316 1153.95260713 -510.27191683 1154.61768418 -513.45825195 1155.27783203 C-514.37769089 1155.47712311 -515.29712982 1155.67641418 -516.24443054 1155.88174438 C-523.92884057 1157.44012155 -532.55579412 1158.97936633 -539.81762695 1155.53955078 C-544.51115362 1151.08671779 -545.8737853 1147.28436792 -546.30981445 1140.91455078 C-546.18020091 1134.54497092 -544.53258877 1129.15465092 -540.19262695 1124.41455078 C-531.42739686 1116.88354588 -519.86534074 1113.81717855 -509.13192749 1110.10018921 C-420.62037745 1079.39010756 -333.6032285 1043.37519699 -248.6862793 1003.82128906 C-245.18862028 1002.19614936 -241.68485179 1000.58468294 -238.1809082 998.97314453 C-219.44836218 990.31893982 -200.9563995 981.18564947 -182.49538422 971.97011566 C-180.53626701 970.99258852 -178.57646935 970.016438 -176.61651611 969.04058838 C-161.42841616 961.4744512 -146.38774223 953.69905992 -131.53808594 945.48291016 C-128.31738326 943.71119648 -125.07417441 941.98592485 -121.82543945 940.26611328 C-107.70178432 932.78763203 -93.81557677 924.9948188 -80.05297852 916.86621094 C-76.48325438 914.77483852 -72.88691168 912.73279636 -69.28637695 910.69506836 C-57.11171147 903.80441855 -45.14553817 896.59634539 -33.25512695 889.22705078 C-32.02777832 888.46811523 -32.02777832 888.46811523 -30.77563477 887.69384766 C-16.9732909 879.12453968 -3.46575421 870.10233928 10.05737305 861.10205078 C10.95243561 860.5071283 11.84749817 859.91220581 12.76968384 859.29925537 C27.82533159 849.28492377 42.71224583 839.05265718 57.24487305 828.28955078 C58.02693115 827.71164795 58.80898926 827.13374512 59.61474609 826.53833008 C67.72821765 820.5257776 75.75820281 814.40676412 83.74487305 808.22705078 C84.3673291 807.7463916 84.98978516 807.26573242 85.63110352 806.77050781 C93.12942966 800.970067 100.45303335 795.00374973 107.65893555 788.84423828 C110.5009287 786.42013322 113.3977737 784.06973679 116.30737305 781.72705078 C121.38526744 777.59663523 126.19051158 773.2187331 130.98706055 768.77001953 C133.14827853 766.77716839 135.32834274 764.82997293 137.55737305 762.91455078 C148.00903168 753.80667683 157.93088892 744.13773276 167.74487305 734.35205078 C168.62876709 733.47274902 169.51266113 732.59344727 170.42333984 731.6875 C174.8689544 727.23133381 179.17336287 722.714358 183.27416992 717.93847656 C185.13023741 715.77861051 187.0627673 713.69389755 188.99487305 711.60205078 C215.12300332 682.59539768 238.86218146 648.07744512 237.99487305 607.42236328 C236.76886147 591.75240287 232.80692039 575.89589157 220.4597168 565.25830078 C205.23688928 553.8713363 186.81033642 553.09919876 168.57348633 555.51464844 C122.32424787 562.26628819 76.65514029 587.07376515 38.74487305 613.22705078 C38.14449219 613.63971191 37.54411133 614.05237305 36.92553711 614.47753906 C24.5642979 622.99944286 12.62237177 632.04689058 0.74487305 641.22705078 C0.05699707 641.7575 -0.63087891 642.28794922 -1.33959961 642.83447266 C-8.77453141 648.57800038 -16.02370547 654.50208178 -23.1652832 660.60595703 C-26.03090389 663.05008412 -28.94918218 665.42400812 -31.88012695 667.78955078 C-36.64032749 671.6628435 -41.18317479 675.7346507 -45.70043945 679.88720703 C-47.8821051 681.88539927 -50.08524004 683.84853967 -52.31762695 685.78955078 C-60.0558025 692.52317616 -67.61755859 699.45375576 -75.16918945 706.39501953 C-77.24177995 708.29961556 -79.32022431 710.19750191 -81.40356445 712.09033203 C-86.4874201 716.71592463 -91.47855079 721.39566299 -96.29640198 726.30076599 C-98.00907849 727.98507734 -99.75621914 729.53203856 -101.59472656 731.07495117 C-108.23544544 736.85175461 -114.35655272 743.1849334 -120.5715332 749.41064453 C-121.95565977 750.79409618 -123.33993464 752.17739946 -124.72434998 753.56056213 C-127.61473537 756.4494794 -130.50332035 759.34018154 -133.390625 762.23217773 C-137.0743674 765.92161686 -140.76258184 769.60654754 -144.45216465 773.29014492 C-147.30828988 776.1426406 -150.16200933 778.99753355 -153.015028 781.85313606 C-154.37333927 783.21210999 -155.73238149 784.57035377 -157.09219551 785.92782402 C-166.26892984 795.03610212 -166.26892984 795.03610212 -174.90208435 804.65382385 C-177.35455396 807.50539055 -180.06674712 810.1003329 -182.75512695 812.72705078 C-186.89899543 816.81908409 -190.87809997 820.96077456 -194.6496582 825.40283203 C-196.99064411 828.06278439 -199.51949783 830.51678818 -202.06762695 832.97705078 C-203.95797816 834.92141202 -205.7368155 836.90617195 -207.51293945 838.95361328 C-211.27154515 843.28091584 -215.18361234 847.44649964 -219.13012695 851.60205078 C-224.19097666 856.95450541 -229.20999124 862.33222351 -234.1105957 867.83251953 C-237.14394294 871.21948102 -240.2234908 874.56361751 -243.31323242 877.89916992 C-245.88189774 880.68286742 -248.31684964 883.52900594 -250.69262695 886.47705078 C-258.65643836 895.60027148 -271.12550895 902.21624928 -283.25512695 903.22705078 C-293.58544502 903.89459961 -303.33968003 902.76010611 -311.53637695 895.95751953 C-317.83106471 889.61991344 -320.16834683 882.28675073 -320.69262695 873.53955078 C-320.54239452 868.05929825 -319.39801459 863.02411675 -318.09545898 857.72900391 C-317.76101619 856.34903355 -317.76101619 856.34903355 -317.41981697 854.941185 C-314.88070257 844.5508094 -312.13552819 834.21584909 -309.37231445 823.88330078 C-308.80361192 821.74851537 -308.23514766 819.61366647 -307.66690063 817.47875977 C-306.1424581 811.75427585 -304.61456303 806.0307188 -303.08596802 800.30734253 C-301.46131111 794.22186875 -299.83991717 788.13552551 -298.21801758 782.04931641 C-288.91876425 747.16144107 -279.59188656 712.28092429 -270.26029015 677.40168762 C-261.73030486 645.51764012 -253.23540047 613.62435337 -244.75512695 581.72705078 C-235.17193866 545.68129632 -225.56199714 509.64284099 -215.92175293 473.61230469 C-206.8372675 439.65822561 -197.78601855 405.69542236 -188.75512695 371.72705078 C-178.90149988 334.6640806 -169.01981916 297.60875809 -159.10525513 260.56204224 C-152.53937846 236.02749386 -145.99056704 211.48851964 -139.4699707 186.94189453 C-138.81219807 184.4663152 -138.15441205 181.99073943 -137.49661255 179.51516724 C-133.6743112 165.12960744 -133.6743112 165.12960744 -129.85717773 150.74267578 C-126.76541321 139.08171742 -123.66582727 127.42298093 -120.53988457 115.77113152 C-119.06075403 110.25397804 -117.5976051 104.73299401 -116.15010357 99.20746136 C-115.28497318 95.91844751 -114.40557022 92.63337341 -113.52226448 89.3491993 C-113.12934851 87.87685678 -112.74217763 86.40296404 -112.36190605 84.92730522 C-104.86211467 55.86964497 -86.64728303 31.03501212 -60.96606445 15.36376953 C-41.74025812 4.06135665 -22.17776364 -0.11207363 0 0 Z " fill="#FEFCFC" transform="translate(1787.255126953125,182.77294921875)"/>
</svg>
